# File created by Blade
# Date/Time:  Fri Jan 16 17:45:47 2015
#---------------------------------------------------------
:version 1.10
:name HOM
:units
  mass 1.0
  length 1.000000
  angle deg
:documentation
     Acclaim Skeleton File
:root
   axis xyz
   order TX TY TZ RX RY RZ
   position 0.000000 0.000000 0.000000
   orientation 0 0 0
:bonedata
   begin
      id 1
      name Spine_dum
      direction 0.000000 1.000000 0.000000
      length 7.170412
      axis 0.0 0.0 0.0 xyz
   end
   begin
      id 2
      name LeftUpLeg_dum
      direction 1.000000 0.000000 0.000000
      length 4.318350
      axis 0.0 0.0 0.0 xyz
   end
   begin
      id 3
      name RightUpLeg_dum
      direction -1.000000 0.000000 0.000000
      length 4.318350
      axis 0.0 0.0 0.0 xyz
   end
   begin
      id 4
      name Spine
      direction 0.000000 1.000000 0.000000
      length 0.000000
      axis 0.0 0.0 0.0 xyz
      dof rx ry rz
   end
   begin
      id 5
      name Spine_dum1
      direction 0.000000 1.000000 0.000000
      length 14.276153
      axis 0.0 0.0 0.0 xyz
   end
   begin
      id 6
      name Spine_dum2
      direction 0.000000 1.000000 0.000000
      length 10.718243
      axis 0.0 0.0 0.0 xyz
   end
   begin
      id 7
      name Spine_dum3
      direction 0.000000 1.000000 0.000000
      length 10.718243
      axis 0.0 0.0 0.0 xyz
   end
   begin
      id 8
      name Head
      direction 0.000000 1.000000 0.000000
      length 4.527550
      axis 0.0 0.0 0.0 xyz
      dof rx ry rz
   end
   begin
      id 9
      name LeftShoulder
      direction 1.000000 0.000000 0.000000
      length 7.058872
      axis 0.0 0.0 -90.0 xyz
      dof rx ry rz
   end
   begin
      id 10
      name LeftArm
      direction 1.000000 0.000000 0.000000
      length 10.955525
      axis 0.0 0.0 -90.0 xyz
      dof rx ry rz
   end
   begin
      id 11
      name LeftForeArm
      direction 1.000000 0.000000 0.000000
      length 8.193716
      axis 0.0 0.0 -90.0 xyz
      dof ry rz rx
   end
   begin
      id 12
      name LeftHand
      direction 0.000000 0.000000 0.000000
      length 0.000000
      axis 0.0 0.0 -90.0 xyz
      dof rx ry rz
   end
   begin
      id 13
      name LeftHand_dum1
      direction 0.000000 0.000000 0.000000
      length 0.000000
      axis 0.0 0.0 -90.0 xyz
   end
   begin
      id 14
      name LeftHand_dum2
      direction 1.000000 0.000000 0.000000
      length 3.937000
      axis 0.0 0.0 -90.0 xyz
   end
   begin
      id 15
      name LeftHandThumb1
      direction 0.000000 0.000000 1.000000
      length 3.937000
      axis 0.0 0.0 -90.0 xyz
      dof rx rz ry
   end
   begin
      id 16
      name RightShoulder
      direction -1.000000 0.000000 0.000000
      length 7.058872
      axis 0.0 0.0 90.0 xyz
      dof rx ry rz
   end
   begin
      id 17
      name RightArm
      direction -1.000000 0.000000 0.000000
      length 10.955525
      axis 0.0 0.0 90.0 xyz
      dof rx ry rz
   end
   begin
      id 18
      name RightForeArm
      direction -1.000000 0.000000 0.000000
      length 8.193716
      axis 0.0 0.0 90.0 xyz
      dof ry rz rx
   end
   begin
      id 19
      name RightHand
      direction 0.000000 0.000000 0.000000
      length 0.000000
      axis 0.0 0.0 90.0 xyz
      dof rx ry rz
   end
   begin
      id 20
      name RightHand_dum1
      direction 0.000000 0.000000 0.000000
      length 0.000000
      axis 0.0 0.0 90.0 xyz
   end
   begin
      id 21
      name RightHand_dum2
      direction -1.000000 0.000000 0.000000
      length 3.937000
      axis 0.0 0.0 90.0 xyz
   end
   begin
      id 22
      name RightHandThumb1
      direction 0.000000 0.000000 1.000000
      length 3.937000
      axis 0.0 0.0 90.0 xyz
      dof rx rz ry
   end
   begin
      id 23
      name LeftUpLeg
      direction 0.000000 -1.000000 0.000000
      length 17.323638
      axis 0.0 0.0 0.0 xyz
      dof rx ry rz
   end
   begin
      id 24
      name LeftLeg
      direction 0.000000 -1.000000 0.000000
      length 16.270368
      axis 0.0 0.0 0.0 xyz
      dof rx ry rz
   end
   begin
      id 25
      name LeftFoot
      direction 0.000000 -0.258819 0.965926
      length 4.922846
      axis 15.0 0.0 0.0 xyz
      dof rx ry rz
   end
   begin
      id 26
      name LeftToeBase
      direction 0.000000 0.000000 1.000000
      length 2.952750
      axis 0.0 0.0 0.0 xyz
      dof rx ry rz
   end
   begin
      id 27
      name RightUpLeg
      direction 0.000000 -1.000000 0.000000
      length 17.323638
      axis 0.0 0.0 0.0 xyz
      dof rx ry rz
   end
   begin
      id 28
      name RightLeg
      direction 0.000000 -1.000000 0.000000
      length 16.270368
      axis 0.0 0.0 0.0 xyz
      dof rx ry rz
   end
   begin
      id 29
      name RightFoot
      direction 0.000000 -0.258819 0.965926
      length 4.922846
      axis 15.0 0.0 0.0 xyz
      dof rx ry rz
   end
   begin
      id 30
      name RightToeBase
      direction 0.000000 0.000000 1.000000
      length 2.952750
      axis 0.0 0.0 0.0 xyz
      dof rx ry rz
   end
:hierarchy
   begin
      root Spine_dum LeftUpLeg_dum RightUpLeg_dum
      Spine_dum Spine
      LeftUpLeg_dum LeftUpLeg
      RightUpLeg_dum RightUpLeg
      Spine Spine_dum1 Spine_dum2 Spine_dum3
      Spine_dum1 Head
      Spine_dum2 LeftShoulder
      Spine_dum3 RightShoulder
      LeftShoulder LeftArm
      LeftArm LeftForeArm
      LeftForeArm LeftHand
      LeftHand LeftHand_dum1 LeftHand_dum2
      LeftHand_dum1 LeftHandThumb1
      RightShoulder RightArm
      RightArm RightForeArm
      RightForeArm RightHand
      RightHand RightHand_dum1 RightHand_dum2
      RightHand_dum1 RightHandThumb1
      LeftUpLeg LeftLeg
      LeftLeg LeftFoot
      LeftFoot LeftToeBase
      RightUpLeg RightLeg
      RightLeg RightFoot
      RightFoot RightToeBase
   end

# File created by Blade
# Date/Time:  Fri Jan 16 17:45:28 2015
# Frame Rate: 120.000 fps
#------------------------------------------------------
:FULLY-SPECIFIED
:DEGREES
556
root -5.424117 35.270975 -10.225148 -2.810161 -5.971543 -5.739374
Spine 1.268371 2.733232 10.987903
Head 3.397440 4.246246 -10.350616
LeftShoulder -20.092612 14.005582 -17.617428
LeftArm 18.796209 -1.112249 -75.700944
LeftForeArm 4.931805 -0.000000 11.082402
LeftHand 2.045368 -0.000000 -5.904824
LeftHandThumb1 -26.253704 0.000000 33.147579
RightShoulder 0.928004 -2.923185 4.075480
RightArm 17.497639 -42.220629 55.619243
RightForeArm -14.463364 -0.000000 48.917077
RightHand 3.891681 0.000000 8.258384
RightHandThumb1 -24.326973 -0.000000 -32.862282
LeftUpLeg 12.549469 15.428005 7.445360
LeftLeg -9.108817 -0.000000 0.000000
LeftFoot -14.992455 26.853307 -8.668671
LeftToeBase 22.671303 -0.000000 -0.000000
RightUpLeg 8.926351 -4.155510 3.957221
RightLeg -4.644220 -0.000000 0.000000
RightFoot -3.744304 -27.219793 3.400437
RightToeBase 13.708291 -0.000000 -0.000000
557
root -5.425693 35.271358 -10.222872 -2.828761 -5.985192 -5.749015
Spine 1.285022 2.745650 11.010539
Head 3.426191 4.256073 -10.356856
LeftShoulder -20.085340 14.016647 -17.615545
LeftArm 18.810232 -1.067302 -75.704994
LeftForeArm 4.889577 -0.000000 11.127852
LeftHand 1.989453 -0.000000 -5.935298
LeftHandThumb1 -26.253704 0.000000 33.147579
RightShoulder 0.921115 -2.884276 4.012696
RightArm 17.858535 -42.488251 55.349806
RightForeArm -14.429331 -0.000000 50.298272
RightHand 3.930200 -0.000000 8.299547
RightHandThumb1 -24.326973 -0.000000 -32.862282
LeftUpLeg 12.581815 15.452083 7.466664
LeftLeg -9.118798 -0.000000 0.000000
LeftFoot -14.986713 26.845348 -8.673356
LeftToeBase 22.662722 -0.000000 -0.000000
RightUpLeg 8.955822 -4.169286 3.965852
RightLeg -4.659751 -0.000000 0.000000
RightFoot -3.731147 -27.205846 3.415596
RightToeBase 13.669547 -0.000000 -0.000000
558
root -5.427664 35.271104 -10.228435 -2.792920 -6.034681 -5.743524
Spine 1.257351 2.803606 11.002805
Head 3.453372 4.257762 -10.349749
LeftShoulder -20.094860 14.011777 -17.609101
LeftArm 18.836752 -0.999295 -75.698440
LeftForeArm 4.961797 -0.000000 11.119855
LeftHand 2.074665 0.000000 -5.883584
LeftHandThumb1 -26.253704 0.000000 33.147579
RightShoulder 0.917765 -2.857319 3.976397
RightArm 18.210288 -42.737461 55.059575
RightForeArm -14.411792 -0.000000 51.734239
RightHand 3.863393 -0.000000 8.159096
RightHandThumb1 -24.326973 -0.000000 -32.862282
LeftUpLeg 12.545389 15.506126 7.459270
LeftLeg -9.112582 -0.000000 0.000000
LeftFoot -14.995531 26.842415 -8.681491
LeftToeBase 22.696339 -0.000000 -0.000000
RightUpLeg 8.905441 -4.069356 3.973777
RightLeg -4.654063 -0.000000 0.000000
RightFoot -3.723872 -27.243891 3.420208
RightToeBase 13.606328 -0.000000 -0.000000
559
root -5.430003 35.271679 -10.225646 -2.831734 -6.046430 -5.757419
Spine 1.304013 2.810976 11.028788
Head 3.468166 4.252520 -10.352531
LeftShoulder -20.096545 14.003145 -17.610212
LeftArm 18.856449 -0.950048 -75.707124
LeftForeArm 4.864950 -0.000000 11.148203
LeftHand 2.071245 -0.000000 -5.859096
LeftHandThumb1 -26.253704 0.000000 33.147579
RightShoulder 0.922983 -2.816965 3.930417
RightArm 18.395169 -42.756175 54.975218
RightForeArm -14.371517 -0.000000 53.211004
RightHand 3.819419 -0.000000 8.511414
RightHandThumb1 -24.326973 -0.000000 -32.862282
LeftUpLeg 12.603053 15.505435 7.489034
LeftLeg -9.129604 -0.000000 0.000000
LeftFoot -14.980987 26.851679 -8.687786
LeftToeBase 22.657542 -0.000000 -0.000000
RightUpLeg 8.960052 -4.053037 3.986467
RightLeg -4.671914 -0.000000 0.000000
RightFoot -3.718119 -27.228624 3.439912
RightToeBase 13.643400 -0.000000 -0.000000
560
root -5.433536 35.271581 -10.229041 -2.813903 -6.084544 -5.754067
Spine 1.293029 2.862422 11.017669
Head 3.489187 4.261347 -10.320587
LeftShoulder -20.096710 14.018072 -17.595960
LeftArm 18.890718 -0.875466 -75.696549
LeftForeArm 4.806286 -0.000000 11.196746
LeftHand 2.049903 -0.000000 -5.873842
LeftHandThumb1 -26.253704 0.000000 33.147579
RightShoulder 0.918400 -2.791890 3.899704
RightArm 18.649068 -42.864658 54.790326
RightForeArm -14.548081 -0.000000 54.677176
RightHand 3.908637 0.000000 8.451265
RightHandThumb1 -24.326973 -0.000000 -32.862282
LeftUpLeg 12.591565 15.545931 7.490651
LeftLeg -9.132884 -0.000000 0.000000
LeftFoot -14.975550 26.846932 -8.682044
LeftToeBase 22.678680 -0.000000 -0.000000
RightUpLeg 8.931168 -4.022726 3.992056
RightLeg -4.666614 -0.000000 0.000000
RightFoot -3.711819 -27.234917 3.432679
RightToeBase 13.599284 -0.000000 -0.000000
561
root -5.435772 35.271429 -10.231499 -2.804520 -6.111381 -5.759646
Spine 1.293152 2.909644 11.027089
Head 3.501627 4.243427 -10.309692
LeftShoulder -20.093330 14.023373 -17.589583
LeftArm 18.914759 -0.853512 -75.708164
LeftForeArm 4.823735 0.000000 11.274567
LeftHand 2.009034 0.000000 -5.828619
LeftHandThumb1 -26.253704 0.000000 33.147579
RightShoulder 0.898335 -2.757902 3.872575
RightArm 18.844875 -42.924588 54.646239
RightForeArm -14.630861 -0.000000 56.207920
RightHand 3.851521 -0.000000 8.475018
RightHandThumb1 -24.326973 -0.000000 -32.862282
LeftUpLeg 12.583263 15.568354 7.499144
LeftLeg -9.129063 -0.000000 0.000000
LeftFoot -14.973443 26.857979 -8.679688
LeftToeBase 22.624594 -0.000000 -0.000000
RightUpLeg 8.912829 -4.000564 4.003560
RightLeg -4.657613 -0.000000 0.000000
RightFoot -3.712764 -27.220642 3.430586
RightToeBase 13.608729 -0.000000 -0.000000
562
root -5.439769 35.271390 -10.231440 -2.808425 -6.134813 -5.758069
Spine 1.304272 2.948587 11.019409
Head 3.506722 4.246961 -10.285103
LeftShoulder -20.102887 14.017400 -17.572135
LeftArm 18.937242 -0.777143 -75.693970
LeftForeArm 4.762135 -0.000000 11.344842
LeftHand 1.957809 -0.000000 -5.811484
LeftHandThumb1 -26.253704 0.000000 33.147579
RightShoulder 0.878466 -2.731187 3.843941
RightArm 19.043361 -42.967607 54.536645
RightForeArm -14.676138 0.000000 57.720327
RightHand 3.715774 -0.000000 8.593477
RightHandThumb1 -24.326973 -0.000000 -32.862282
LeftUpLeg 12.596765 15.615015 7.513273
LeftLeg -9.132499 -0.000000 0.000000
LeftFoot -14.972516 26.825276 -8.691383
LeftToeBase 22.636303 -0.000000 -0.000000
RightUpLeg 8.914744 -3.988203 4.008350
RightLeg -4.654858 -0.000000 0.000000
RightFoot -3.697936 -27.215311 3.395219
RightToeBase 13.598731 -0.000000 -0.000000
563
root -5.442334 35.271118 -10.231553 -2.812812 -6.142043 -5.761812
Spine 1.314125 2.978677 11.029158
Head 3.513327 4.235374 -10.279105
LeftShoulder -20.109174 14.012839 -17.570611
LeftArm 18.962742 -0.754481 -75.707564
LeftForeArm 4.896199 -0.000000 11.364045
LeftHand 2.086652 0.000000 -5.742655
LeftHandThumb1 -26.253704 0.000000 33.147579
RightShoulder 0.857857 -2.693168 3.814138
RightArm 19.149773 -42.969549 54.491039
RightForeArm -14.600850 -0.000000 59.245415
RightHand 3.868083 -0.000000 8.810184
RightHandThumb1 -24.326973 -0.000000 -32.862282
LeftUpLeg 12.610326 15.615456 7.522769
LeftLeg -9.145345 -0.000000 0.000000
LeftFoot -14.978834 26.829447 -8.703609
LeftToeBase 22.668946 -0.000000 -0.000000
RightUpLeg 8.923649 -3.986142 4.016296
RightLeg -4.664412 -0.000000 0.000000
RightFoot -3.688377 -27.209000 3.379958
RightToeBase 13.598271 -0.000000 -0.000000
564
root -5.445298 35.271170 -10.236400 -2.806301 -6.162313 -5.760419
Spine 1.329911 3.023695 11.028049
Head 3.500919 4.236058 -10.261033
LeftShoulder -20.094426 14.003541 -17.562831
LeftArm 18.984772 -0.711740 -75.697370
LeftForeArm 4.896569 -0.000000 11.426457
LeftHand 2.130774 -0.000000 -5.720730
LeftHandThumb1 -26.253704 0.000000 33.147579
RightShoulder 0.856684 -2.648675 3.788157
RightArm 19.286915 -42.994846 54.378189
RightForeArm -14.624816 0.000000 60.793958
RightHand 3.848614 -0.000000 8.875440
RightHandThumb1 -24.326973 -0.000000 -32.862282
LeftUpLeg 12.588247 15.589629 7.519795
LeftLeg -9.122354 -0.000000 0.000000
LeftFoot -14.988195 26.876346 -8.704588
LeftToeBase 22.688818 -0.000000 -0.000000
RightUpLeg 8.898575 -3.958785 4.024314
RightLeg -4.643634 -0.000000 0.000000
RightFoot -3.708349 -27.228192 3.390076
RightToeBase 13.596492 -0.000000 -0.000000
565
root -5.445204 35.271781 -10.236845 -2.807303 -6.184394 -5.745839
Spine 1.336994 3.066009 11.024193
Head 3.504442 4.248127 -10.256226
LeftShoulder -20.085332 14.003344 -17.563150
LeftArm 18.998289 -0.648457 -75.683218
LeftForeArm 4.813581 -0.000000 11.486507
LeftHand 2.142633 -0.000000 -5.821528
LeftHandThumb1 -26.253704 0.000000 33.147579
RightShoulder 0.846684 -2.623549 3.760400
RightArm 19.317393 -42.916791 54.419134
RightForeArm -14.806611 0.000000 62.325750
RightHand 3.765666 -0.000000 8.820830
RightHandThumb1 -24.326973 -0.000000 -32.862282
LeftUpLeg 12.593478 15.686185 7.517687
LeftLeg -9.119579 -0.000000 0.000000
LeftFoot -14.977030 26.803774 -8.711327
LeftToeBase 22.683267 -0.000000 -0.000000
RightUpLeg 8.895278 -3.939239 4.009315
RightLeg -4.642785 -0.000000 0.000000
RightFoot -3.708293 -27.216335 3.383371
RightToeBase 13.613216 -0.000000 -0.000000
566
root -5.447672 35.271420 -10.236767 -2.808180 -6.196287 -5.739755
Spine 1.341010 3.098890 11.019668
Head 3.506648 4.244141 -10.241130
LeftShoulder -20.096788 14.013502 -17.558334
LeftArm 19.033388 -0.637401 -75.694787
LeftForeArm 4.856676 0.000000 11.556714
LeftHand 2.135161 -0.000000 -5.810664
LeftHandThumb1 -26.253704 0.000000 33.147579
RightShoulder 0.807144 -2.607933 3.705841
RightArm 19.379545 -42.906457 54.442204
RightForeArm -14.676920 0.000000 63.828497
RightHand 3.765710 -0.000000 8.711548
RightHandThumb1 -24.326973 -0.000000 -32.862282
LeftUpLeg 12.593936 15.654658 7.511849
LeftLeg -9.112545 -0.000000 0.000000
LeftFoot -14.983524 26.832144 -8.719301
LeftToeBase 22.677320 -0.000000 -0.000000
RightUpLeg 8.895968 -3.922901 4.007349
RightLeg -4.641227 -0.000000 0.000000
RightFoot -3.717089 -27.210948 3.390610
RightToeBase 13.600032 -0.000000 -0.000000
567
root -5.452708 35.271138 -10.239171 -2.793732 -6.198810 -5.754457
Spine 1.333971 3.126964 11.034950
Head 3.504599 4.247465 -10.229423
LeftShoulder -20.097081 14.021063 -17.551764
LeftArm 19.069062 -0.576747 -75.680589
LeftForeArm 4.850724 -0.000000 11.627443
LeftHand 2.104682 -0.000000 -5.813490
LeftHandThumb1 -26.253704 0.000000 33.147579
RightShoulder 0.832165 -2.580149 3.722421
RightArm 19.504147 -42.816411 54.316775
RightForeArm -14.774387 -0.000000 65.324870
RightHand 3.904020 -0.000000 9.207991
RightHandThumb1 -24.326973 -0.000000 -32.862282
LeftUpLeg 12.585280 15.648734 7.530822
LeftLeg -9.127882 -0.000000 0.000000
LeftFoot -14.979483 26.840843 -8.715985
LeftToeBase 22.689006 -0.000000 -0.000000
RightUpLeg 8.879535 -3.891384 4.037856
RightLeg -4.641798 -0.000000 0.000000
RightFoot -3.713556 -27.254623 3.379622
RightToeBase 13.632447 -0.000000 -0.000000
